<?xml version="1.0"?>
<svg width="12.7" height="12.7" xmlns="http://www.w3.org/2000/svg" xmlns:svg="http://www.w3.org/2000/svg" version="1.1">
 <title>Freesm Launcher Logo</title>

 <metadata id="metadata259">Freesm Launcher Logo19/10/2022Freesm LauncherNotWindstone, s0me1newithhand7shttps://github.com/FreesmTeam/FreesmLauncherFreesm Launcher</metadata>
 <g class="layer">
  <title>Layer 1</title>
  <rect fill="#14191e" height="12.7" id="svg_1" stroke-width="0.26" width="12.7" x="0" y="0"/>
  <g id="svg_2" transform="matrix(0.90909, 0, 0, 0.90909, 0.57737, 0.57727)">
   <g id="svg_3" stroke-width="0.26">
    <path d="m6.35,6.35" fill="#99cd61" id="svg_4"/>
    <path d="m6.35,0.53l-2.52,4.36l2.52,1.46l2.52,-1.46l0.11,-3.09c-1.15,-0.67 -2.34,-1.27 -2.63,-1.27z" fill="#f5c2e7" id="svg_5" transform="matrix(1, 0, 0, 1, 0, 0)"/>
    <path d="m8.98,1.8l-2.63,4.55l2.52,1.46l2.52,-4.37c-0.14,-0.25 -1.26,-0.98 -2.41,-1.64z" fill="#f2cdcd" id="svg_6" transform="matrix(1, 0, 0, 1, 0, 0)"/>
    <path d="m11.39,3.44l-5.04,2.91l2.52,1.46l2.74,-1.46c0,-1.33 -0.07,-2.66 -0.22,-2.91z" fill="#f5e0dc" id="svg_7" transform="matrix(1, 0, 0, 1, 0, 0)"/>
    <path d="m6.35,6.35l0,2.91l5.04,0c0.15,-0.25 0.22,-1.58 0.22,-2.91l-5.26,0z" fill="#fff1e9" id="svg_8" transform="matrix(1, 0, 0, 1, 0, 0)"/>
    <path d="m6.35,6.35l0,2.91l2.63,1.64c1.15,-0.66 2.27,-1.39 2.41,-1.64l-5.04,-2.91z" fill="#f9f6f3" id="svg_9" transform="matrix(1, 0, 0, 1, 0, 0)"/>
    <path d="m6.35,6.35l-2.52,1.46l2.52,4.36c0.29,0 1.48,-0.6 2.63,-1.27l-2.63,-4.55z" fill="#fcfcfc" id="svg_10"/>
    <path d="m3.83,4.89l-2.52,4.37c0.29,0.5 4.46,2.91 5.04,2.91l0,-5.82l-2.52,-1.46z" fill="#4d3f33" id="svg_11"/>
    <path d="m1.31,3.44c-0.29,0.5 -0.29,5.32 0,5.82l5.04,-2.91l0,-2.91l-5.04,0z" fill="#7a573b" id="svg_12"/>
    <path d="m6.35,0.53c-0.58,0 -4.75,2.41 -5.04,2.91l5.04,2.91l0,-5.82z" fill="#cba6f7" id="svg_13" transform="matrix(1, 0, 0, 1, 0, 0)"/>
   </g>
   <g id="svg_14" transform="matrix(.88 0 0 .88 -10.906 -1.2421)">
    <g id="svg_15" transform="translate(13.26 2.2776)">
     <path d="m6.35,2.94c-0.34,0 -2.78,1.41 -2.95,1.7l2.95,5.12l2.95,-5.12c-0.17,-0.29 -2.61,-1.7 -2.95,-1.7z" fill="#fff" id="svg_16" stroke-width="0.26" transform="matrix(.96975 0 0 .96975 .1921 .1921)"/>
    </g>
    <path d="m16.75,6.97l2.86,4.96c0.33,0 2.7,-1.36 2.86,-1.65c0.17,-0.29 0.17,-3.02 0,-3.31l-2.86,1.66l-2.86,-1.66z" fill="#dfdfdf" id="svg_17" stroke-width="0.26"/>
   </g>
   <path d="m3.83,4.89c-0.15,0.26 -0.15,2.66 0,2.92c0.15,0.25 2.23,1.45 2.52,1.45l0,-2.91l-2.52,-1.46z" fill="#d6d2d2" id="svg_18" stroke-width="0.26"/>
  </g>
 </g>
</svg>