<?xml version="1.0"?>
<svg width="1024" height="1024" xmlns="http://www.w3.org/2000/svg" xmlns:svg="http://www.w3.org/2000/svg" version="1.1">
 <mask height="824" id="mask0_102_69" maskUnits="userSpaceOnUse" width="824" x="100" y="98">
  <path clip-rule="evenodd" d="m924,354.63c0,-9.78 0,-19.57 -0.06,-29.35c-0.05,-8.24 -0.14,-16.48 -0.36,-24.72c-0.49,-17.95 -1.55,-36.06 -4.74,-53.81c-3.24,-18.01 -8.53,-34.77 -16.86,-51.13c-8.19,-16.09 -18.89,-30.8 -31.66,-43.56c-12.77,-12.76 -27.49,-23.46 -43.57,-31.64c-16.38,-8.34 -33.16,-13.62 -51.19,-16.86c-17.76,-3.19 -35.87,-4.25 -53.82,-4.73c-8.24,-0.22 -16.49,-0.32 -24.73,-0.37c-9.79,-0.06 -19.58,-0.05 -29.37,-0.05l-113.64,-0.41l-85,0l-111.64,0.41c-9.81,0 -19.61,-0.01 -29.42,0.05c-8.26,0.05 -16.52,0.15 -24.78,0.37c-17.99,0.48 -36.15,1.54 -53.94,4.73c-18.06,3.24 -34.86,8.52 -51.26,16.85c-16.12,8.19 -30.88,18.89 -43.67,31.65c-12.79,12.76 -23.51,27.47 -31.72,43.55c-8.35,16.37 -13.65,33.14 -16.9,51.16c-3.19,17.75 -4.25,35.85 -4.74,53.79c-0.22,8.24 -0.32,16.48 -0.37,24.72c-0.06,9.78 -0.56,21.94 -0.56,31.72l0,110.09l0,85.91l0.51,112.43c0,9.79 -0.01,19.59 0.05,29.39c0.05,8.25 0.15,16.5 0.37,24.75c0.49,17.97 1.55,36.1 4.75,53.88c3.24,18.03 8.54,34.82 16.89,51.2c8.21,16.11 18.93,30.85 31.72,43.62c12.79,12.78 27.54,23.49 43.66,31.69c16.41,8.34 33.22,13.64 51.29,16.88c17.79,3.19 35.93,4.25 53.92,4.73c8.26,0.23 16.52,0.32 24.78,0.37c9.81,0.06 19.61,0.06 29.42,0.06l112.65,0l85.21,0l112.42,0c9.79,0 19.58,0 29.37,-0.06c8.24,-0.05 16.49,-0.14 24.73,-0.37c17.96,-0.48 36.08,-1.54 53.84,-4.74c18.02,-3.24 34.79,-8.53 51.16,-16.87c16.09,-8.2 30.81,-18.91 43.58,-31.69c12.77,-12.77 23.47,-27.51 31.66,-43.61c8.34,-16.39 13.62,-33.18 16.86,-51.23c3.19,-17.77 4.25,-35.9 4.74,-53.86c0.22,-8.25 0.31,-16.5 0.36,-24.75c0.06,-9.8 0.06,-19.6 0.06,-29.39c0,0 -0.01,-110.45 -0.01,-112.43l0,-86c0,-1.47 0.01,-112.37 0.01,-112.37z" fill="white" fill-rule="evenodd" id="path6"/>
 </mask>
 <defs id="defs74">
  <filter color-interpolation-filters="sRGB" filterUnits="userSpaceOnUse" height="844" id="filter0_d_102_69" width="844" x="90" y="98">
   <feFlood flood-opacity="0" id="feFlood31" result="BackgroundImageFix"/>
   <feColorMatrix id="feColorMatrix33" in="SourceAlpha" result="hardAlpha" type="matrix" values="0 0 0 0 0 0 0 0 0 0 0 0 0 0 0 0 0 0 127 0"/>
   <feOffset dy="10" id="feOffset35"/>
   <feGaussianBlur id="feGaussianBlur37" stdDeviation="5"/>
   <feColorMatrix id="feColorMatrix39" type="matrix" values="0 0 0 0 0 0 0 0 0 0 0 0 0 0 0 0 0 0 0.3 0"/>
   <feBlend id="feBlend41" in2="BackgroundImageFix"/>
   <feBlend id="feBlend43" in="SourceGraphic" in2="effect1_dropShadow_102_69"/>
  </filter>
  <filter color-interpolation-filters="sRGB" filterUnits="userSpaceOnUse" height="845.75" id="filter1_b_102_69" width="845.75" x="89.13" y="87.13">
   <feFlood flood-opacity="0" id="feFlood46" result="BackgroundImageFix"/>
   <feGaussianBlur id="feGaussianBlur48" in="BackgroundImage" stdDeviation="5.44"/>
   <feComposite id="feComposite50" in2="SourceAlpha" operator="in" result="effect1_backgroundBlur_102_69"/>
   <feBlend id="feBlend52" in="SourceGraphic" in2="effect1_backgroundBlur_102_69"/>
  </filter>
  <linearGradient id="paint0_linear_102_69" x1="-0.34" x2="-0.34" y1="0" y2="1.68">
   <stop id="stop55" stop-color="white"/>
   <stop id="stop57" offset="0.49" stop-color="#EFEFEF"/>
   <stop id="stop59" offset="1" stop-color="#C0C0C0"/>
  </linearGradient>
  <linearGradient id="paint1_linear_102_69" x1="0.97" x2="0.97" y1="1.05" y2="0.11">
   <stop id="stop62" stop-color="#F6F3F3"/>
   <stop id="stop64" offset="1" stop-color="white"/>
  </linearGradient>
 </defs>
 <g class="layer">
  <title>Layer 1</title>
  <g filter="url(#filter0_d_102_69)" id="g4">
   <path clip-rule="evenodd" d="m924,354.63c0,-9.78 0,-19.57 -0.06,-29.35c-0.05,-8.24 -0.14,-16.48 -0.36,-24.72c-0.49,-17.95 -1.55,-36.06 -4.74,-53.81c-3.24,-18.01 -8.53,-34.77 -16.86,-51.13c-8.19,-16.09 -18.89,-30.8 -31.66,-43.56c-12.77,-12.76 -27.49,-23.46 -43.57,-31.64c-16.38,-8.34 -33.16,-13.62 -51.19,-16.86c-17.76,-3.19 -35.87,-4.25 -53.82,-4.73c-8.24,-0.22 -16.49,-0.32 -24.73,-0.37c-9.79,-0.06 -19.58,-0.05 -29.37,-0.05l-113.64,-0.41l-85,0l-111.64,0.41c-9.81,0 -19.61,-0.01 -29.42,0.05c-8.26,0.05 -16.52,0.15 -24.78,0.37c-17.99,0.48 -36.15,1.54 -53.94,4.73c-18.06,3.24 -34.86,8.52 -51.26,16.85c-16.12,8.19 -30.88,18.89 -43.67,31.65c-12.79,12.76 -23.51,27.47 -31.72,43.55c-8.35,16.37 -13.65,33.14 -16.9,51.16c-3.19,17.75 -4.25,35.85 -4.74,53.79c-0.22,8.24 -0.32,16.48 -0.37,24.72c-0.06,9.78 -0.56,21.94 -0.56,31.72l0,110.09l0,85.91l0.51,112.43c0,9.79 -0.01,19.59 0.05,29.39c0.05,8.25 0.15,16.5 0.37,24.75c0.49,17.97 1.55,36.1 4.75,53.88c3.24,18.03 8.54,34.82 16.89,51.2c8.21,16.11 18.93,30.85 31.72,43.62c12.79,12.78 27.54,23.49 43.66,31.69c16.41,8.34 33.22,13.64 51.29,16.88c17.79,3.19 35.93,4.25 53.92,4.73c8.26,0.23 16.52,0.32 24.78,0.37c9.81,0.06 19.61,0.06 29.42,0.06l112.65,0l85.21,0l112.42,0c9.79,0 19.58,0 29.37,-0.06c8.24,-0.05 16.49,-0.14 24.73,-0.37c17.96,-0.48 36.08,-1.54 53.84,-4.74c18.02,-3.24 34.79,-8.53 51.16,-16.87c16.09,-8.2 30.81,-18.91 43.58,-31.69c12.77,-12.77 23.47,-27.51 31.66,-43.61c8.34,-16.39 13.62,-33.18 16.86,-51.23c3.19,-17.77 4.25,-35.9 4.74,-53.86c0.22,-8.25 0.31,-16.5 0.36,-24.75c0.06,-9.8 0.06,-19.6 0.06,-29.39c0,0 -0.01,-110.45 -0.01,-112.43l0,-86c0,-1.47 0.01,-112.37 0.01,-112.37z" fill="url(#paint0_linear_102_69)" fill-rule="evenodd" id="path2"/>
  </g>
  <g id="g15" mask="url(#mask0_102_69)">
   <rect fill="url(#paint1_linear_102_69)" height="914" id="rect9" width="914" x="42" y="36"/>
   <g filter="url(#filter1_b_102_69)" id="g13">
    <rect fill="black" fill-opacity="0.01" height="824" id="rect11" rx="126" width="824" x="100" y="98"/>
   </g>
  </g>
  <g id="g1817" transform="matrix(0.819384, 0, 0, 0.819384, -746.963, 25.2203)">
   <path d="m1536.46,591.62z" fill="#99cd61" id="path7899" stroke-width="17.39"/>
   <path d="m1536.46,209.09l-165.66,286.9l165.66,95.63l165.63,-95.63l7.2,-203.69c-75.65,-43.68 -153.7,-83.21 -172.83,-83.21z" fill="#f5c2e7" id="path3228" stroke-width="17.39" transform="matrix(1, 0, 0, 1, 0, 0)"/>
   <path d="m1709.29,292.3l-172.83,299.32l165.63,95.64l165.66,-286.9c-9.57,-16.57 -82.81,-64.39 -158.46,-108.06z" fill="#f2cdcd" id="path2659" stroke-width="17.39" transform="matrix(1, 0, 0, 1, 0, 0)"/>
   <path d="m1867.75,400.36l-331.29,191.26l165.63,95.64l179.99,-95.64c0,-87.35 -4.77,-174.7 -14.33,-191.26z" fill="#f5e0dc" id="path2708" stroke-width="17.39" transform="matrix(1, 0, 0, 1, 0, 0)"/>
   <path d="m1536.46,591.62l0,191.27l331.29,0c9.56,-16.56 14.33,-103.91 14.33,-191.27l-345.62,0z" fill="#fff1e9" id="path1737" stroke-width="17.39" transform="matrix(1, 0, 0, 1, 0, 0)"/>
   <path d="m1536.46,591.62l0,191.27l172.83,108.06c75.65,-43.67 148.89,-91.5 158.46,-108.06l-331.29,-191.27z" fill="#f9f6f3" id="path2937" stroke-width="17.39" transform="matrix(1, 0, 0, 1, 0, 0)"/>
   <path d="m1536.46,591.62l-165.66,95.64l165.66,286.9c19.13,0 97.18,-39.53 172.83,-83.21l-172.83,-299.33z" fill="#fcfcfc" id="path3117" stroke-width="17.39" transform="matrix(1, 0, 0, 1, 0, 0)"/>
   <path d="m1370.8,495.99l-165.62,286.9c19.12,33.13 293.03,191.27 331.28,191.27l0,-382.54l-165.66,-95.63z" fill="#4d3f33" id="path2010" stroke-width="17.39"/>
   <path d="m1205.18,400.36c-19.13,33.13 -19.13,349.4 0,382.53l331.28,-191.27l0,-191.26l-331.28,0z" fill="#7a573b" id="path1744" stroke-width="17.39"/>
   <path d="m1536.46,209.09c-38.25,0 -312.16,158.14 -331.28,191.27l331.28,191.26l0,-382.53z" fill="#cba6f7" id="path1739" stroke-width="17.39"/>
   <g id="g1657" transform="matrix(57.831674,0,0,57.831674,402.40368,92.688452)">
    <g id="g7651" transform="translate(13.259961,2.2775894)">
     <path d="m6.35,2.94c-0.34,0 -2.78,1.41 -2.95,1.7l2.95,5.12l2.95,-5.12c-0.17,-0.29 -2.61,-1.7 -2.95,-1.7z" fill="#ffffff" id="path6659" stroke-width="0.26" transform="matrix(0.96974817,0,0,0.96974817,0.19209885,0.19209792)"/>
    </g>
    <path d="m16.75,6.97l2.86,4.96c0.33,0 2.7,-1.36 2.86,-1.65c0.17,-0.29 0.17,-3.02 0,-3.31l-2.86,1.66l-2.86,-1.66z" fill="#dfdfdf" id="path461" stroke-width="0.26"/>
   </g>
   <path d="m1370.85,495.99c-9.57,16.57 -9.57,174.7 0,191.27c9.56,16.56 146.49,95.63 165.62,95.63l0,-191.27l-165.62,-95.63z" fill="#d6d2d2" id="path5065" stroke-width="17.39"/>
  </g>
 </g>
</svg>