<?xml version="1.0"?>
<svg width="38.1" height="12.7" xmlns="http://www.w3.org/2000/svg" xmlns:svg="http://www.w3.org/2000/svg" version="1.1">
 <title>Prism Launcher Logo</title>

 <metadata id="metadata259">Freesm Launcher Logo19/10/2022Freesm LauncherNotWindstone, s0me1newithhand7shttps://github.com/FreesmTeam/FreesmLauncherFreesm Launcher</metadata>
 <g class="layer">
  <title>Layer 1</title>
  <g id="svg_12" transform="matrix(.88 0 0 .88 -10.906 -1.2421)">
   <g id="svg_13" transform="translate(13.26 2.2776)">
    <path d="m6.35,2.94c-0.34,0 -2.78,1.41 -2.95,1.7l2.95,5.12l2.95,-5.12c-0.17,-0.29 -2.61,-1.7 -2.95,-1.7z" fill="#fff" id="svg_14" stroke-width="0.26" transform="matrix(.96975 0 0 .96975 .1921 .1921)"/>
   </g>
   <path d="m16.75,6.97l2.86,4.96c0.33,0 2.7,-1.36 2.86,-1.65c0.17,-0.29 0.17,-3.02 0,-3.31l-2.86,1.66l-2.86,-1.66z" fill="#dfdfdf" id="svg_15" stroke-width="0.26"/>
  </g>
  <path d="m3.83,4.89c-0.15,0.26 -0.15,2.66 0,2.92c0.15,0.25 2.23,1.45 2.52,1.45l0,-2.91l-2.52,-1.46z" fill="#d6d2d2" id="svg_16" stroke-width="0.26"/>
  <g id="svg_112">
   <title id="svg_111">Prism Launcher Logo</title>
   <metadata id="svg_110">Freesm Launcher Logo19/10/2022Freesm LauncherNotWindstone, s0me1newithhand7shttps://github.com/FreesmTeam/FreesmLauncherFreesm Launcher</metadata>
   <g class="layer" id="svg_113">
    <title>Layer 1</title>
    <g id="svg_73">
     <g id="svg_109" transform="matrix(0.1353646,0,0,0.1353646,15.301582,0.52916663)"/>
     <g id="svg_92">
      <path d="m6.35,6.35z" fill="#99cd61" id="svg_108" stroke-width="0.26"/>
      <path d="m6.35,0.53l-2.52,4.36l2.52,1.46l2.52,-1.46l0.11,-3.09c-1.15,-0.67 -2.34,-1.27 -2.63,-1.27z" fill="#f5c2e7" id="svg_107" stroke-width="0.26"/>
      <path d="m8.98,1.8l-2.63,4.55l2.52,1.46l2.52,-4.37c-0.14,-0.25 -1.26,-0.98 -2.41,-1.64z" fill="#f2cdcd" id="svg_106" stroke-width="0.26"/>
      <path d="m11.39,3.44l-5.04,2.91l2.52,1.46l2.74,-1.46c0,-1.33 -0.07,-2.66 -0.22,-2.91z" fill="#f5e0dc" id="svg_105" stroke-width="0.26"/>
      <path d="m6.35,6.35l0,2.91l5.04,0c0.15,-0.25 0.22,-1.58 0.22,-2.91l-5.26,0z" fill="#fff1e9" id="svg_104" stroke-width="0.26"/>
      <path d="m6.35,6.35l0,2.91l2.63,1.64c1.15,-0.66 2.27,-1.39 2.41,-1.64l-5.04,-2.91z" fill="#f9f6f3" id="svg_103" stroke-width="0.26"/>
      <path d="m6.35,6.35l-2.52,1.46l2.52,4.36c0.29,0 1.48,-0.6 2.63,-1.27l-2.63,-4.55z" fill="#fcfcfc" id="svg_102" stroke-width="0.26"/>
      <path d="m3.83,4.89l-2.52,4.37c0.29,0.5 4.46,2.91 5.04,2.91l0,-5.82l-2.52,-1.46z" fill="#4d3f33" id="svg_101" stroke-width="0.26"/>
      <path d="m1.31,3.44c-0.29,0.5 -0.29,5.32 0,5.82l5.04,-2.91l0,-2.91l-5.04,0z" fill="#7a573b" id="svg_100" stroke-width="0.26"/>
      <path d="m6.35,0.53c-0.58,0 -4.75,2.41 -5.04,2.91l5.04,2.91l0,-5.82z" fill="#cba6f7" id="svg_99" stroke-width="0.26"/>
      <g id="svg_93">
       <g id="svg_95" transform="matrix(0.87999988,0,0,0.87999988,-10.906495,-1.242093)">
        <g id="svg_97" transform="translate(13.259961,2.2775894)">
         <path d="m6.35,3.04c-0.33,0 -2.7,1.37 -2.86,1.65l2.86,4.97l2.86,-4.97c-0.16,-0.28 -2.53,-1.65 -2.86,-1.65z" fill="#ffffff" id="svg_98" stroke-width="0.26"/>
        </g>
        <path d="m16.75,6.97l2.86,4.96c0.33,0 2.7,-1.36 2.86,-1.65c0.17,-0.29 0.17,-3.02 0,-3.31l-2.86,1.66l-2.86,-1.66z" fill="#dfdfdf" id="svg_96" stroke-width="0.26"/>
       </g>
       <path d="m3.83,4.89c-0.15,0.26 -0.15,2.66 0,2.92c0.15,0.25 2.23,1.45 2.52,1.45l0,-2.91l-2.52,-1.46z" fill="#d6d2d2" id="svg_94" stroke-width="0.26"/>
      </g>
     </g>
     <g font-family="poppins" font-size="4.76px" font-weight="bold" id="svg_74" stroke-width="0.26">
      <path d="m17.68,4.61c0,-0.46 0.22,-0.6 0.61,-0.6l0.22,0l0,-0.86c-0.36,0 -0.65,0.19 -0.83,0.47l0,-0.44l-0.82,0l0,2.66l0.82,0l0,-1.23z" fill="#ffffff" id="svg_91"/>
      <path d="m26.19,5.88c0.66,0 1.07,-0.35 1.07,-0.81c-0.01,-0.99 -1.45,-0.69 -1.45,-1.12c0,-0.13 0.11,-0.2 0.3,-0.2c0.23,0 0.36,0.12 0.39,0.3l0.75,0c-0.05,-0.53 -0.43,-0.91 -1.12,-0.91c-0.69,0 -1.08,0.37 -1.08,0.83c0,0.97 1.45,0.66 1.45,1.09c0,0.12 -0.11,0.22 -0.32,0.22c-0.23,0 -0.39,-0.13 -0.41,-0.31l-0.81,0c0.04,0.51 0.52,0.91 1.23,0.91z" fill="#ffffff" id="svg_90"/>
      <path d="m31.43,4.4l0,1.44l0.81,0l0,-1.55c0,-0.72 -0.43,-1.14 -1.09,-1.14c-0.38,0 -0.71,0.22 -0.89,0.5c-0.18,-0.32 -0.51,-0.5 -0.91,-0.5c-0.34,0 -0.61,0.15 -0.77,0.36l0,-0.33l-0.82,0l0,2.66l0.82,0l0,-1.44c0,-0.35 0.2,-0.54 0.51,-0.54c0.31,0 0.51,0.19 0.51,0.54l0,1.44l0.81,0l0,-1.44c0,-0.35 0.2,-0.54 0.51,-0.54c0.31,0 0.51,0.19 0.51,0.54z" fill="#ffffff" id="svg_89"/>
      <path d="m15.23,7.26l-0.82,0l0,3.34l1.88,0l0,-0.63l-1.06,0l0,-2.71z" fill="#ffffff" id="svg_88"/>
      <path d="m16.52,9.27c0,0.84 0.52,1.37 1.17,1.37c0.39,0 0.67,-0.18 0.82,-0.41l0,0.37l0.82,0l0,-2.66l-0.82,0l0,0.38c-0.14,-0.23 -0.42,-0.41 -0.82,-0.41c-0.65,0 -1.17,0.52 -1.17,1.36zm1.99,0c0,0.43 -0.27,0.66 -0.58,0.66c-0.3,0 -0.58,-0.24 -0.58,-0.66c0,-0.43 0.28,-0.65 0.58,-0.65c0.31,0 0.58,0.23 0.58,0.65z" fill="#ffffff" id="svg_87"/>
      <path d="m22.54,10.6l0,-2.66l-0.81,0l0,1.45c0,0.36 -0.2,0.56 -0.52,0.56c-0.3,0 -0.51,-0.2 -0.51,-0.56l0,-1.45l-0.81,0l0,1.56c0,0.71 0.42,1.13 1.03,1.13c0.36,0 0.64,-0.16 0.81,-0.39l0,0.36l0.81,0z" fill="#ffffff" id="svg_86"/>
      <path d="m24.96,9.16l0,1.44l0.81,0l0,-1.55c0,-0.72 -0.41,-1.13 -1.02,-1.13c-0.36,0 -0.65,0.15 -0.81,0.38l0,-0.36l-0.81,0l0,2.66l0.81,0l0,-1.44c0,-0.36 0.2,-0.56 0.51,-0.56c0.31,0 0.51,0.2 0.51,0.56z" fill="#ffffff" id="svg_85"/>
      <path d="m26.17,9.27c0,0.85 0.56,1.37 1.34,1.37c0.66,0 1.14,-0.39 1.27,-1l-0.86,0c-0.07,0.19 -0.2,0.3 -0.43,0.3c-0.29,0 -0.49,-0.22 -0.49,-0.67c0,-0.44 0.2,-0.67 0.49,-0.67c0.23,0 0.36,0.12 0.43,0.31l0.86,0c-0.13,-0.64 -0.61,-1 -1.27,-1c-0.78,0 -1.34,0.52 -1.34,1.36z" fill="#ffffff" id="svg_84"/>
      <path d="m29.22,7.08l0,3.52l0.81,0l0,-1.44c0,-0.36 0.2,-0.56 0.51,-0.56c0.31,0 0.51,0.2 0.51,0.56l0,1.44l0.81,0l0,-1.55c0,-0.72 -0.4,-1.13 -1.01,-1.13c-0.37,0 -0.66,0.15 -0.82,0.38l0,-1.22l-0.81,0z" fill="#ffffff" id="svg_83"/>
      <path d="m33.6,8.56c0.27,0 0.5,0.16 0.5,0.46l-1.02,0c0.05,-0.3 0.25,-0.46 0.52,-0.46zm1.27,1.16l-0.87,0c-0.06,0.14 -0.19,0.26 -0.42,0.26c-0.26,0 -0.48,-0.16 -0.5,-0.51l1.84,0c0.01,-0.08 0.01,-0.16 0.01,-0.24c0,-0.81 -0.54,-1.32 -1.32,-1.32c-0.79,0 -1.34,0.52 -1.34,1.36c0,0.85 0.56,1.37 1.34,1.37c0.66,0 1.13,-0.4 1.26,-0.92z" fill="#ffffff" id="svg_82"/>
      <path d="m36.18,9.37c0,-0.46 0.22,-0.59 0.61,-0.59l0.22,0l0,-0.86c-0.36,0 -0.65,0.19 -0.83,0.47l0,-0.45l-0.82,0l0,2.66l0.82,0l0,-1.23z" fill="#ffffff" id="svg_81"/>
      <path d="m23.18,3.74c0.27,0 0.5,0.16 0.5,0.46l-1.02,0c0.05,-0.3 0.25,-0.46 0.52,-0.46zm1.27,1.16l-0.87,0c-0.06,0.14 -0.19,0.26 -0.42,0.26c-0.26,0 -0.48,-0.16 -0.5,-0.51l1.84,0c0.01,-0.08 0.01,-0.16 0.01,-0.24c0,-0.81 -0.54,-1.32 -1.32,-1.32c-0.79,0 -1.34,0.52 -1.34,1.36c0,0.85 0.56,1.37 1.34,1.37c0.66,0 1.13,-0.4 1.26,-0.92z" fill="#ffffff" id="svg_80"/>
      <path d="m20.2,3.75c0.27,0 0.5,0.16 0.5,0.46l-1.02,0c0.05,-0.3 0.25,-0.46 0.52,-0.46zm1.27,1.16l-0.87,0c-0.06,0.14 -0.19,0.26 -0.42,0.26c-0.26,0 -0.48,-0.16 -0.5,-0.51l1.84,0c0.01,-0.08 0.01,-0.16 0.01,-0.24c0,-0.81 -0.54,-1.32 -1.32,-1.32c-0.79,0 -1.34,0.52 -1.34,1.36c0,0.85 0.56,1.37 1.34,1.37c0.66,0 1.13,-0.4 1.26,-0.92z" fill="#ffffff" id="svg_79"/>
      <path d="m15.26,2.53l-0.84,0l0,3.34l0.45,-0.86l0.04,0.23l0.35,0l0,-2.71z" fill="#ffffff" id="svg_78"/>
      <path d="m15.25,2.88l-0.7,0.12l-0.12,0.16l1.88,0l0,-0.63l-1.06,0l0,0.35z" fill="#ffffff" id="svg_77"/>
      <path d="m15.25,4.23l-0.7,0.12l-0.12,0.16l1.88,0l0,-0.63l-1.06,0l0,0.35z" fill="#ffffff" id="svg_76"/>
      <path d="m15.26,4.62c-0.3,-0.47 -0.77,-0.3 -0.37,-0.3l0.04,-0.28l0.04,-0.26c-1.19,0.57 0.09,-0.17 -0.09,0.11l0.38,-0.71l-0.83,0l0,2.69l0.83,0l0,-1.24l0,-0.01z" fill="#ffffff" id="svg_75"/>
     </g>
    </g>
   </g>
  </g>
 </g>
</svg>